<svg xmlns="http://www.w3.org/2000/svg" viewBox="0 0 1307.47 118.35"><defs><style>.cls-1{fill:#ed1c24;}.cls-2{fill:#fff;}</style></defs><g id="Layer_2" data-name="Layer 2"><g id="Layer_1-2" data-name="Layer 1"><rect class="cls-1" x="23.16" y="34.18" width="73.2" height="73.2"/><polygon class="cls-1" points="119.53 56.43 0 56.43 59.77 0 119.53 56.43"/><rect class="cls-1" x="154.96" y="34.18" width="73.2" height="73.2"/><polygon class="cls-1" points="251.32 56.43 131.79 56.43 191.56 0 251.32 56.43"/><rect class="cls-2" x="286.75" y="36.92" width="73.2" height="73.2"/><polygon class="cls-2" points="383.12 59.17 263.58 59.17 323.35 2.74 383.12 59.17"/><rect class="cls-2" x="419.45" y="38.29" width="73.2" height="73.2"/><polygon class="cls-2" points="515.81 60.54 396.28 60.54 456.05 4.11 515.81 60.54"/><rect class="cls-2" x="551.24" y="38.29" width="73.2" height="73.2"/><polygon class="cls-2" points="647.61 60.54 528.08 60.54 587.84 4.11 647.61 60.54"/><rect class="cls-2" x="683.03" y="41.03" width="73.2" height="73.2"/><polygon class="cls-2" points="779.4 63.29 659.87 63.29 719.63 6.85 779.4 63.29"/><rect class="cls-2" x="815.73" y="42.4" width="73.2" height="73.2"/><polygon class="cls-2" points="912.1 64.66 792.57 64.66 852.33 8.22 912.1 64.66"/><rect class="cls-2" x="947.52" y="42.4" width="73.2" height="73.2"/><polygon class="cls-2" points="1043.89 64.66 924.36 64.66 984.13 8.22 1043.89 64.66"/><rect class="cls-2" x="1079.32" y="45.15" width="73.2" height="73.2"/><polygon class="cls-2" points="1175.68 67.4 1056.15 67.4 1115.92 10.97 1175.68 67.4"/><rect class="cls-2" x="1211.11" y="45.15" width="73.2" height="73.2"/><polygon class="cls-2" points="1307.47 67.4 1187.94 67.4 1247.71 10.97 1307.47 67.4"/></g></g></svg>